<svg width="120" height="26" viewBox="0 0 120 26" version="1.1" xmlns="http://www.w3.org/2000/svg" xmlns:xlink="http://www.w3.org/1999/xlink">
<title>saj_adv_cmyk_mono</title>
<desc>Created using Figma</desc>
<g id="Canvas" transform="translate(3816 1931)">
<g id="saj_adv_cmyk_mono">
<g id="g10">
<g id="g12">
<g id="path14">
<use xlink:href="#path0_fill" transform="matrix(1 0 0 -1 -3773.8 -1905.31)" fill="#FFFFFF"/>
</g>
<g id="path16">
<use xlink:href="#path1_fill" transform="matrix(1 0 0 -1 -3816 -1905.22)" fill="#FFFFFF"/>
</g>
<g id="path18">
<use xlink:href="#path2_fill" transform="matrix(1 0 0 -1 -3753.21 -1905.35)" fill="#FFFFFF"/>
</g>
<g id="path20">
<use xlink:href="#path3_fill" transform="matrix(1 0 0 -1 -3730.92 -1905.35)" fill="#FFFFFF"/>
</g>
<g id="path22">
<use xlink:href="#path4_fill" transform="matrix(1 0 0 -1 -3714.08 -1905.35)" fill="#FFFFFF"/>
</g>
<g id="path24">
<use xlink:href="#path5_fill" transform="matrix(1 0 0 -1 -3785.27 -1905.3)" fill="#FFFFFF"/>
</g>
<g id="path26">
<use xlink:href="#path6_fill" transform="matrix(1 0 0 -1 -3779.59 -1905.3)" fill="#FFFFFF"/>
</g>
<g id="path28">
<use xlink:href="#path7_fill" transform="matrix(1 0 0 -1 -3785.39 -1909.34)" fill="#FFFFFF"/>
</g>
<g id="path30">
<use xlink:href="#path8_fill" transform="matrix(1 0 0 -1 -3781.11 -1908.3)" fill="#FFFFFF"/>
</g>
<g id="path32">
<use xlink:href="#path9_fill" transform="matrix(1 0 0 -1 -3791.71 -1905.3)" fill="#FFFFFF"/>
</g>
<g id="path34">
<use xlink:href="#path10_fill" transform="matrix(1 0 0 -1 -3790.38 -1910.37)" fill="#FFFFFF"/>
</g>
<g id="path36">
<use xlink:href="#path11_fill" transform="matrix(1 0 0 -1 -3798.39 -1905.3)" fill="#FFFFFF"/>
</g>
<g id="path38">
<use xlink:href="#path12_fill" transform="matrix(1 0 0 -1 -3795.2 -1911.4)" fill="#FFFFFF"/>
</g>
<g id="path40">
<use xlink:href="#path13_fill" transform="matrix(1 0 0 -1 -3785.38 -1913.3)" fill="#FFFFFF"/>
</g>
<g id="path42">
<use xlink:href="#path14_fill" transform="matrix(1 0 0 -1 -3782.29 -1911.24)" fill="#FFFFFF"/>
</g>
<g id="path44">
<use xlink:href="#path15_fill" transform="matrix(1 0 0 -1 -3785.17 -1917.34)" fill="#FFFFFF"/>
</g>
<g id="path46">
<use xlink:href="#path16_fill" transform="matrix(1 0 0 -1 -3783.18 -1914.25)" fill="#FFFFFF"/>
</g>
<g id="path48">
<use xlink:href="#path17_fill" transform="matrix(1 0 0 -1 -3788.92 -1915.34)" fill="#FFFFFF"/>
</g>
<g id="path50">
<use xlink:href="#path18_fill" transform="matrix(1 0 0 -1 -3787.27 -1920.41)" fill="#FFFFFF"/>
</g>
<g id="path52">
<use xlink:href="#path19_fill" transform="matrix(1 0 0 -1 -3792.06 -1917.38)" fill="#FFFFFF"/>
</g>
<g id="path54">
<use xlink:href="#path20_fill" transform="matrix(1 0 0 -1 -3788.87 -1923.48)" fill="#FFFFFF"/>
</g>
</g>
</g>
</g>
</g>
<defs>
<path id="path0_fill" d="M 9.53072 22.8698L 9.53072 10.306C 9.53072 8.84262 9.42488 7.63395 9.21319 6.67971C 9.00051 5.72546 8.51283 5.01526 7.74965 4.54883C 6.98612 4.03974 5.84116 3.78528 4.31465 3.78528L 1.18339e-06 3.78528L 3.55904 2.6962e-09L 4.91881 2.6962e-09C 5.06739 2.6962e-09 5.50695 0.0110129 6.23897 0.031686C 6.97029 0.0529387 7.53795 0.0902271 7.94056 0.143166C 8.34367 0.196104 8.74677 0.280921 9.14889 0.397618C 9.55199 0.513927 10.056 0.694191 10.6599 0.938403C 11.2648 1.18262 11.8316 1.6009 12.3619 2.19462C 12.8916 2.78835 13.2789 3.3243 13.5227 3.80113C 13.7665 4.27796 13.9896 4.94646 14.1909 5.80505C 14.3922 6.66368 14.4926 7.81399 14.4926 9.25611L 14.4926 22.8698L 9.53072 22.8698Z"/>
<path id="path1_fill" d="M 16.0666 11.4983C 15.1441 12.336 14.2481 12.8507 13.3785 13.0414C 12.4247 13.2106 11.3325 13.2958 10.1025 13.2958L 8.0793 13.2958C 7.16735 13.2958 6.43567 13.5078 5.88429 13.9317C 5.31198 14.3135 5.0253 14.9284 5.0253 15.7768C 5.0253 17.7699 6.27646 18.7669 8.77887 18.7669L 16.9826 18.7669L 16.9826 22.8698L 8.01555 22.8698C 6.61596 22.8698 5.5029 22.7529 4.67578 22.5197C 3.76384 22.3078 2.95798 21.9418 2.25838 21.4225C 1.55859 20.9029 1.00718 20.1661 0.604152 19.212C 0.20132 18.2576 0 17.1762 0 15.9673C 0 13.5712 0.662501 11.8642 1.9935 10.8468C 3.3185 9.82858 5.20554 9.32007 7.64959 9.32007L 9.01574 9.32007C 9.65181 9.32007 10.198 9.26655 10.6539 9.16066C 11.115 9.05457 11.5232 8.84263 11.8837 8.52465C 12.1596 8.22749 12.3291 7.75083 12.3928 7.09315L 12.3928 6.61616C 12.3928 5.64064 12.0694 4.97812 11.4227 4.62805C 10.7758 4.27796 9.8585 4.10311 8.6711 4.10311L 0.523586 4.10311L 0.523586 0L 9.43443 0C 10.8131 0 11.9366 0.11631 12.8063 0.350089C 13.7605 0.562036 14.5822 0.932799 15.2712 1.46334C 15.9605 1.99311 16.4484 2.60809 16.7345 3.30787C 17.0209 4.00806 17.2117 4.61762 17.307 5.13713C 17.4026 5.65647 17.4502 6.22413 17.4502 6.83853C 17.4502 9.10754 16.9888 10.6609 16.0666 11.4983Z"/>
<path id="path2_fill" d="M 10.0652 19.2676L 5.98721 8.62548L 14.0335 8.62548L 10.0652 19.2676ZM 17.2642 2.86412e-09L 14.7843 6.51643L 5.20227 6.51643L 2.76386 2.86412e-09L -2.89809e-06 2.86412e-09L 8.93903 22.7504L 11.1227 22.7504L 20.0281 2.86412e-09L 17.2642 2.86412e-09Z"/>
<path id="path3_fill" d="M 12.658 18.916C 11.3957 20.1303 9.75809 20.5776 7.88156 20.5776L 2.59322 20.5776L 2.59322 2.17279L 7.88156 2.17279C 9.75809 2.17279 11.3957 2.62025 12.658 3.83436C 14.3297 5.46405 14.2615 8.85097 14.2615 11.6308C 14.2615 14.4106 14.3297 17.2865 12.658 18.916ZM 14.4663 2.10903C 12.9993 0.734957 10.8497 2.86412e-09 8.32473 2.86412e-09L -9.66029e-07 2.86412e-09L -9.66029e-07 22.7504L 8.32473 22.7504C 10.8497 22.7504 12.9993 22.0154 14.4663 20.6415C 16.9912 18.2771 16.8547 14.7942 16.8547 11.6308C 16.8547 8.46765 16.9912 4.47349 14.4663 2.10903Z"/>
<path id="path4_fill" d="M 10.0989 2.86412e-09L 7.98345 2.86412e-09L 3.3811e-06 22.7504L 2.72924 22.7504L 9.04142 4.34559L 15.3536 22.7504L 18.0828 22.7504L 10.0989 2.86412e-09Z"/>
<path id="path5_fill" fill-rule="evenodd" d="M 5.42366 -2.6962e-09L 0.263528 -2.6962e-09L 9.66029e-07 3.62009L 4.32084 3.02637L 5.42366 -2.6962e-09Z"/>
<path id="path6_fill" fill-rule="evenodd" d="M 6.50275 -2.6962e-09L 1.34241 -2.6962e-09L -1.11093e-06 2.84225L 4.45572 2.24853L 6.50275 -2.6962e-09Z"/>
<path id="path7_fill" fill-rule="evenodd" d="M 4.10815 1.00225e-07L 0.0633594 0.793107L 0 4.41322L 3.23695 3.02639L 4.10815 1.00225e-07Z"/>
<path id="path8_fill" fill-rule="evenodd" d="M 5.32494 -2.02262e-08L 1.10594 0.792914L -1.18339e-06 3.63515L 3.5129 2.24832L 5.32494 -2.02262e-08Z"/>
<path id="path9_fill" fill-rule="evenodd" d="M 5.16033 -2.6962e-09L -1.8113e-07 -2.6962e-09L 0.979915 4.39137L 5.16745 3.79765L 5.16033 -2.6962e-09Z"/>
<path id="path10_fill" fill-rule="evenodd" d="M 3.87183 5.7358e-08L 1.32829e-06 0.793151L 1.10124 5.18432L 4.06468 3.79769L 3.87183 5.7358e-08Z"/>
<path id="path11_fill" fill-rule="evenodd" d="M 5.16033 -2.6962e-09L 3.62261e-08 -2.6962e-09L 2.39286 5.16031L 6.4473 4.56661L 5.16033 -2.6962e-09Z"/>
<path id="path12_fill" fill-rule="evenodd" d="M 3.69931 -1.08678e-07L 2.53583e-07 0.792904L 2.39286 5.95323L 5.08362 4.56641L 3.69931 -1.08678e-07Z"/>
<path id="path13_fill" fill-rule="evenodd" d="M 2.99138 1.75093e-07L -2.89809e-07 1.57072L 0.132702 5.19085L 2.34766 3.02635L 2.99138 1.75093e-07Z"/>
<path id="path14_fill" fill-rule="evenodd" d="M 4.16785 1.44904e-07L 0.874068 1.57077L -1.18339e-06 4.41303L 2.58625 2.24833L 4.16785 1.44904e-07Z"/>
<path id="path15_fill" fill-rule="evenodd" d="M 1.95973 2.89809e-07L -9.6603e-07 2.36387L 0.33292 5.984L 1.54763 3.0264L 1.95973 2.89809e-07Z"/>
<path id="path16_fill" fill-rule="evenodd" d="M 2.98619 -3.62261e-08L 0.637549 2.36368L -2.89809e-07 5.20593L 1.63952 2.24833L 2.98619 -3.62261e-08Z"/>
<path id="path17_fill" fill-rule="evenodd" d="M 2.69175 2.83771e-07L 1.40074e-06 1.57072L 1.2201 5.96214L 3.06676 3.79764L 2.69175 2.83771e-07Z"/>
<path id="path18_fill" fill-rule="evenodd" d="M 1.57409 -5.07165e-07L 4.34713e-07 2.36387L 1.34127 6.75504L 2.13477 3.79764L 1.57409 -5.07165e-07Z"/>
<path id="path19_fill" fill-rule="evenodd" d="M 2.39306 -2.83771e-07L 3.62261e-07 1.57077L 2.39306 6.7311L 3.87262 4.56665L 2.39306 -2.83771e-07Z"/>
<path id="path20_fill" fill-rule="evenodd" d="M 1.18933 -1.08678e-07L -5.79617e-07 2.36368L 2.39281 7.52401L 2.76629 4.56641L 1.18933 -1.08678e-07Z"/>
</defs>
</svg>
